<?xml version="1.0" standalone="no"?>
<!DOCTYPE svg PUBLIC "-//W3C//DTD SVG 20010904//EN"
 "http://www.w3.org/TR/2001/REC-SVG-20010904/DTD/svg10.dtd">
<svg version="1.0" xmlns="http://www.w3.org/2000/svg"
 width="610.000000pt" height="426.000000pt" viewBox="0 0 610.000000 426.000000"
 preserveAspectRatio="xMidYMid meet">

<g transform="translate(0.000000,426.000000) scale(0.100000,-0.100000)"
fill="#000000" stroke="none">
<path d="M2162 3038 l3 -593 28 -100 c29 -104 101 -263 158 -350 56 -85 177
-231 237 -286 134 -124 373 -269 442 -269 40 0 211 88 308 160 222 162 423
431 502 669 58 175 59 189 60 798 l1 558 -871 3 -871 2 3 -592z m833 82 l0
-445 -390 0 -390 0 -3 435 c-1 239 0 441 3 448 3 10 87 12 392 10 l388 -3 0
-445z m850 0 l0 -445 -395 0 -395 0 -3 434 c-1 314 1 437 9 447 10 12 80 14
398 12 l386 -3 0 -445z m-847 -1057 c1 -409 -1 -553 -9 -553 -24 0 -173 86
-253 147 -205 154 -406 427 -472 642 -45 145 -66 297 -43 312 8 5 184 8 394 6
l380 -2 3 -552z m836 551 c22 -8 21 -54 -4 -175 -36 -176 -97 -315 -209 -474
-67 -95 -221 -254 -310 -319 -86 -63 -228 -139 -246 -132 -13 5 -15 79 -15
544 0 405 3 541 12 550 9 9 108 12 384 12 205 0 379 -3 388 -6z"/>
<path d="M2472 3118 l3 -273 155 0 155 0 0 25 0 25 -120 5 -120 5 -3 83 c-2
53 1 89 9 98 8 10 34 14 85 14 72 0 74 1 74 25 0 24 -2 24 -82 27 l-83 3 0 90
0 90 120 5 c112 5 120 6 120 25 0 19 -8 20 -158 23 l-157 3 2 -273z"/>
<path d="M3415 3382 c-6 -5 -75 -37 -155 -72 -80 -34 -149 -66 -154 -71 -5 -4
15 -19 45 -32 167 -76 284 -127 291 -127 5 0 33 11 61 24 29 13 77 34 107 46
30 13 59 27 65 32 5 4 15 8 22 8 18 0 17 -55 -2 -70 -18 -15 -19 -42 -3 -58 7
-7 13 -36 13 -65 0 -45 3 -52 20 -52 17 0 20 7 21 50 0 28 6 60 13 73 10 19
10 27 -2 46 -8 12 -17 38 -19 57 -2 28 1 36 20 44 12 5 21 14 19 19 -3 10
-322 156 -341 156 -7 0 -16 -4 -21 -8z"/>
<path d="M3246 3089 c-7 -37 -1 -49 25 -49 34 0 93 -30 131 -67 l37 -36 40 36
c44 40 100 67 137 67 19 0 24 5 24 24 0 31 -10 56 -22 56 -5 0 -48 -16 -94
-36 l-85 -37 -80 37 c-44 20 -86 36 -94 36 -7 0 -15 -14 -19 -31z"/>
<path d="M2678 2385 c-46 -41 -122 -117 -170 -169 -103 -111 -111 -137 -55
-180 56 -43 89 -36 161 34 35 33 66 57 69 53 4 -3 7 -19 7 -35 0 -30 9 -35 28
-16 10 10 17 10 31 1 10 -7 22 -9 25 -6 3 4 6 42 6 86 l0 80 54 57 c30 32 58
69 62 84 8 35 -20 79 -46 71 -10 -3 -21 -1 -25 5 -3 5 -19 10 -35 10 -22 0
-49 -18 -112 -75z m141 46 c11 -7 5 -19 -30 -55 -45 -47 -77 -57 -98 -32 -10
12 -4 22 31 55 43 40 70 49 97 32z m59 -39 c5 -31 -95 -137 -114 -121 -23 19
-17 34 38 93 53 58 71 65 76 28z m-150 -114 c4 -37 -31 -57 -59 -32 -19 17
-25 45 -12 58 4 4 21 6 38 4 24 -2 31 -8 33 -30z m-98 -19 c12 -22 12 -22 -47
-87 -22 -24 -31 -42 -27 -54 8 -25 -3 -23 -41 10 l-33 27 61 63 c34 34 65 62
69 62 4 0 12 -9 18 -21z m61 -55 c11 -13 5 -23 -40 -67 -42 -43 -53 -49 -61
-37 -18 27 -10 47 30 84 45 40 52 43 71 20z m-201 -82 c0 -4 -5 -13 -12 -20
-9 -9 -7 -16 7 -32 20 -22 61 -27 68 -7 2 6 8 9 12 5 14 -14 -17 -38 -48 -38
-50 0 -99 65 -70 93 9 10 43 9 43 -1z"/>
<path d="M3302 2531 c-85 -22 -152 -104 -168 -207 -14 -94 37 -212 111 -255
17 -10 61 -23 100 -29 47 -8 92 -24 141 -51 82 -45 89 -46 104 -19 9 17 5 22
-40 41 -72 31 -77 41 -35 73 133 102 121 345 -21 423 -46 26 -140 37 -192 24z
m162 -66 c52 -34 71 -82 71 -176 0 -78 -3 -89 -28 -127 -34 -48 -79 -72 -139
-72 -66 0 -108 27 -140 90 -58 112 -22 251 77 296 38 18 124 12 159 -11z"/>
<path d="M2264 987 c-5 -6 -8 -67 -6 -135 3 -120 4 -123 28 -134 18 -9 27 -9
36 0 9 9 7 16 -10 28 -20 14 -22 23 -22 129 0 108 -7 140 -26 112z"/>
<path d="M1570 854 c0 -154 -4 -148 105 -142 83 4 85 26 3 30 l-63 3 0 45 0
45 58 3 c75 4 72 25 -4 32 l-54 5 -3 37 -3 37 63 3 c48 2 63 7 63 18 0 12 -16
15 -82 16 l-83 1 0 -133z"/>
<path d="M2396 983 c-12 -12 -6 -33 9 -33 8 0 15 6 15 14 0 17 -14 28 -24 19z"/>
<path d="M2680 856 c0 -129 1 -136 20 -136 18 0 20 7 20 73 0 78 9 97 47 97
31 0 43 -28 43 -104 0 -52 3 -66 15 -66 12 0 15 15 15 76 0 41 -4 84 -10 94
-12 23 -52 33 -84 20 -24 -9 -25 -7 -28 33 -2 30 -8 43 -20 45 -16 3 -18 -8
-18 -132z"/>
<path d="M3570 949 c0 -39 -2 -41 -24 -35 -27 7 -76 -9 -88 -27 -4 -7 -8 -42
-8 -79 0 -61 2 -69 24 -84 19 -12 38 -14 80 -9 l56 7 0 134 c0 127 -1 134 -20
134 -17 0 -20 -7 -20 -41z m-5 -134 c0 -69 0 -70 -28 -73 -43 -5 -57 13 -57
74 0 58 15 76 60 71 24 -2 25 -5 25 -72z"/>
<path d="M3813 971 c-26 -16 -33 -29 -39 -66 -9 -62 2 -143 22 -166 9 -10 29
-21 46 -24 18 -4 37 -20 51 -41 12 -18 25 -34 30 -34 11 0 9 38 -3 45 -18 11
-10 26 20 37 42 14 50 35 50 127 0 69 -3 84 -23 107 -32 36 -108 44 -154 15z
m129 -33 c4 -7 8 -50 8 -95 0 -71 -3 -84 -19 -93 -30 -15 -76 -12 -100 8 -20
15 -22 25 -19 97 3 73 5 81 28 93 29 15 89 9 102 -10z"/>
<path d="M4294 979 c-10 -17 13 -36 27 -22 12 12 4 33 -11 33 -5 0 -12 -5 -16
-11z"/>
<path d="M1877 913 c-5 -4 -22 -7 -40 -8 l-32 0 -3 -83 c-2 -53 1 -89 9 -98
20 -25 29 -4 29 72 0 70 1 75 26 86 45 21 59 2 62 -86 2 -67 5 -77 20 -74 26
5 30 136 5 166 -20 23 -64 38 -76 25z"/>
<path d="M2065 908 c-31 -18 -35 -28 -35 -95 0 -56 3 -64 25 -79 17 -11 37
-15 61 -11 34 6 35 5 32 -21 -3 -24 -8 -28 -48 -32 -32 -4 -46 -10 -48 -22 -3
-15 4 -18 45 -18 43 0 50 3 71 34 21 30 22 43 20 137 -3 103 -3 104 -28 105
-14 1 -36 4 -50 8 -14 3 -34 1 -45 -6z m73 -30 c7 -7 12 -36 12 -65 0 -49 -2
-53 -27 -59 -14 -4 -33 -2 -42 3 -20 12 -27 98 -10 119 14 17 51 18 67 2z"/>
<path d="M2520 907 c-18 -9 -25 -21 -25 -42 0 -25 7 -33 45 -53 33 -16 45 -28
45 -45 0 -19 -5 -22 -44 -23 -25 0 -47 -6 -49 -12 -5 -15 65 -27 97 -16 22 8
26 15 26 49 0 38 -3 41 -47 64 -27 13 -48 29 -48 36 0 18 32 27 63 20 23 -6
46 8 30 18 -23 13 -71 15 -93 4z"/>
<path d="M3045 910 c-32 -13 -50 -39 -37 -52 9 -9 17 -7 32 10 24 26 52 28 70
7 16 -19 11 -24 -53 -55 -58 -28 -71 -58 -41 -91 19 -21 64 -25 82 -7 10 10
17 10 33 -1 26 -16 51 1 31 21 -7 7 -12 39 -12 73 0 66 -4 76 -37 94 -25 13
-40 13 -68 1z m75 -125 c0 -28 -30 -48 -63 -43 -38 5 -32 35 10 56 44 22 53
20 53 -13z"/>
<path d="M3298 915 c-3 -4 -21 -7 -40 -8 l-33 -2 0 -90 c0 -77 2 -90 18 -93
15 -3 17 6 17 72 0 72 1 77 26 88 44 20 58 2 64 -86 3 -42 10 -76 15 -76 16 0
18 165 3 178 -17 14 -62 25 -70 17z"/>
<path d="M2392 815 c4 -127 22 -129 26 -2 2 83 0 97 -13 97 -13 0 -15 -14 -13
-95z"/>
<path d="M4060 825 c0 -79 2 -86 25 -101 17 -11 35 -14 57 -10 18 4 43 7 56 6
21 0 22 3 22 96 0 86 -2 95 -17 92 -15 -3 -18 -16 -21 -81 -3 -74 -4 -77 -29
-83 -46 -12 -58 5 -61 90 -2 59 -6 76 -17 76 -12 0 -15 -17 -15 -85z"/>
<path d="M4295 897 c-3 -7 -5 -52 -3 -98 2 -67 6 -84 18 -84 12 0 15 17 15 94
0 67 -4 96 -12 98 -7 3 -15 -2 -18 -10z"/>
<path d="M4400 900 c0 -5 15 -10 34 -10 19 0 37 -3 40 -8 2 -4 -16 -40 -41
-79 -24 -40 -42 -76 -39 -81 3 -5 35 -10 71 -11 52 -1 65 1 65 14 0 11 -11 15
-45 15 -25 0 -45 3 -45 6 0 15 64 116 76 121 8 3 14 14 14 24 0 17 -8 19 -65
19 -37 0 -65 -4 -65 -10z"/>
</g>
</svg>
